<svg width="429" height="424" viewBox="0 0 429 424" fill="none" xmlns="http://www.w3.org/2000/svg">
<path d="M414 212C414 320.635 324.847 409 214.5 409C104.153 409 15 320.635 15 212C15 103.365 104.153 15 214.5 15C324.847 15 414 103.365 414 212Z" fill="#1D1D1D" fill-opacity="0.75" stroke="white" stroke-width="30"/>
<circle cx="214.5" cy="211.5" r="184.5" fill="black"/>
<path d="M317 215C317 269.724 304.959 318.771 285.99 353.778C266.807 389.179 241.967 408 217 408C192.033 408 167.193 389.179 148.01 353.778C129.041 318.771 117 269.724 117 215C117 160.276 129.041 111.229 148.01 76.2215C167.193 40.8211 192.033 22 217 22C241.967 22 266.807 40.8211 285.99 76.2215C304.959 111.229 317 160.276 317 215Z" stroke="white" stroke-width="20"/>
<path d="M213.773 140.301C175.275 140.182 140.943 131.957 116.615 119.237C91.7907 106.257 79.9196 90.1592 79.9657 75.1554C80.0119 60.1516 91.9818 44.1272 116.886 31.3002C141.292 18.7297 175.674 10.716 214.171 10.8345C252.669 10.9529 287.001 19.178 311.329 31.8983C336.154 44.8783 348.025 60.9761 347.978 75.9799C347.932 90.9837 335.962 107.008 311.058 119.835C286.653 132.406 252.271 140.419 213.773 140.301Z" stroke="white" stroke-width="20"/>
<path d="M223.037 413.909C184.54 413.791 150.207 405.566 125.879 392.845C101.055 379.866 89.1837 363.768 89.2298 348.764C89.276 333.76 101.246 317.736 126.15 304.909C150.556 292.338 184.938 284.325 223.435 284.443C261.933 284.561 296.265 292.786 320.593 305.507C345.418 318.487 357.289 334.585 357.243 349.588C357.196 364.592 345.227 380.617 320.323 393.444C295.917 406.014 261.535 414.028 223.037 413.909Z" stroke="white" stroke-width="20"/>
<line x1="29.8916" y1="216.001" x2="398.892" y2="212.001" stroke="white" stroke-width="20"/>
</svg>
