<svg width="323" height="128" viewBox="0 0 323 128" fill="none" xmlns="http://www.w3.org/2000/svg">
<path d="M63.9104 94.2977C57.3824 86.1057 53.5424 78.9248 52.2624 72.7808C50.9824 67.7888 51.4944 63.8208 53.6704 60.8768C55.9744 57.4208 59.4304 55.7568 63.9104 55.7568C68.3904 55.7568 71.8464 57.4208 74.1504 60.8768C76.3264 63.8208 76.8384 67.7888 75.5584 72.7808C74.1504 79.0528 70.3104 86.2209 63.9104 94.2977V94.2977ZM110.272 99.8017C109.376 105.818 105.28 110.81 99.648 113.242C88.768 117.978 78.0032 110.426 68.7872 100.186C84.032 81.1008 86.848 66.2528 80.3072 56.64C76.4672 51.136 70.9632 48.448 63.9104 48.448C49.7024 48.448 41.8816 60.48 44.9536 74.4448C46.7456 81.9968 51.4816 90.5857 59.0336 100.186C54.2976 105.434 49.8176 109.146 45.8496 111.45C42.7776 113.114 39.8336 114.138 37.0176 114.394C24.0896 116.314 13.9648 103.77 18.5728 90.8288C19.2128 89.1648 20.4928 86.0928 22.6688 81.3568L22.7968 81.1008C29.8368 65.728 38.4256 48.32 48.2816 28.9792L48.5376 28.3392L51.3536 22.9632C53.5296 18.9952 54.4256 17.2032 57.8816 15.0272C59.5456 14.0032 61.5936 13.4912 63.8976 13.4912C68.5056 13.4912 72.0896 16.1792 73.6256 18.3552C74.3936 19.5072 75.2896 21.0432 76.4416 22.9632L79.1296 28.2112L79.5136 28.9792C89.3696 48.32 97.9584 65.728 104.998 81.1008L105.126 81.2288L107.686 87.1168L109.222 90.8288C110.4 93.7856 110.656 96.7297 110.272 99.8017ZM116.16 88.2688C115.264 85.4528 113.728 82.1248 111.808 78.1568V78.0288C102.72 58.688 94.2592 41.28 86.1952 25.6512L85.6832 24.8832C79.9232 13.1072 75.8272 6.05444 63.9104 6.05444C52.1344 6.05444 47.1296 14.2464 42.0096 24.8832L41.6256 25.6512C33.5616 41.28 25.1008 58.688 16.0128 78.0288V78.2848L13.3248 84.1728C12.3008 86.6048 11.7888 87.8848 11.6608 88.2688C5.13275 106.202 18.5728 121.946 34.8416 121.946C34.9696 121.946 35.4816 121.946 36.1216 121.818H37.9136C46.3616 120.794 55.0784 115.418 63.9104 105.805C72.7424 115.405 81.4592 120.794 89.9072 121.818H91.6992C92.3392 121.946 92.8512 121.946 92.9792 121.946C109.248 121.958 122.688 106.202 116.16 88.2688Z" fill="white"/>
<path d="M148.484 79.6602V63.1855C148.484 62.0007 148.291 60.9867 147.903 60.1436C147.516 59.2777 146.912 58.6055 146.092 58.127C145.294 57.6484 144.257 57.4092 142.981 57.4092C141.888 57.4092 140.942 57.6029 140.145 57.9902C139.347 58.3548 138.732 58.8903 138.299 59.5967C137.866 60.2803 137.649 61.0892 137.649 62.0234H127.806C127.806 60.4512 128.17 58.9587 128.899 57.5459C129.629 56.1331 130.688 54.8913 132.078 53.8203C133.468 52.7266 135.12 51.8721 137.034 51.2568C138.971 50.6416 141.136 50.334 143.528 50.334C146.399 50.334 148.951 50.8125 151.185 51.7695C153.418 52.7266 155.172 54.1621 156.448 56.0762C157.747 57.9902 158.396 60.3828 158.396 63.2539V79.0791C158.396 81.1071 158.522 82.7705 158.772 84.0693C159.023 85.3454 159.388 86.4619 159.866 87.4189V88H149.92C149.441 86.9974 149.077 85.7441 148.826 84.2402C148.598 82.7135 148.484 81.1868 148.484 79.6602ZM149.783 65.4756L149.852 71.0469H144.349C143.05 71.0469 141.922 71.195 140.965 71.4912C140.008 71.7874 139.222 72.209 138.606 72.7559C137.991 73.2799 137.535 73.8952 137.239 74.6016C136.966 75.3079 136.829 76.0827 136.829 76.9258C136.829 77.7689 137.023 78.5322 137.41 79.2158C137.798 79.8766 138.356 80.4007 139.085 80.7881C139.814 81.1527 140.669 81.335 141.648 81.335C143.13 81.335 144.417 81.0387 145.511 80.4463C146.604 79.8538 147.448 79.1247 148.04 78.2588C148.655 77.3929 148.974 76.5726 148.997 75.7979L151.595 79.9678C151.23 80.902 150.729 81.8704 150.091 82.873C149.476 83.8757 148.689 84.8213 147.732 85.71C146.775 86.5758 145.625 87.2936 144.28 87.8633C142.936 88.4102 141.341 88.6836 139.495 88.6836C137.148 88.6836 135.018 88.2165 133.104 87.2822C131.212 86.3252 129.708 85.015 128.592 83.3516C127.498 81.6654 126.951 79.7513 126.951 77.6094C126.951 75.6725 127.316 73.9521 128.045 72.4482C128.774 70.9443 129.845 69.6797 131.258 68.6543C132.693 67.6061 134.482 66.82 136.624 66.2959C138.766 65.749 141.25 65.4756 144.075 65.4756H149.783ZM176.375 51.0176V88H166.497V51.0176H176.375ZM165.882 41.3789C165.882 39.9434 166.383 38.7585 167.386 37.8242C168.388 36.89 169.733 36.4229 171.419 36.4229C173.082 36.4229 174.415 36.89 175.418 37.8242C176.443 38.7585 176.956 39.9434 176.956 41.3789C176.956 42.8145 176.443 43.9993 175.418 44.9336C174.415 45.8678 173.082 46.335 171.419 46.335C169.733 46.335 168.388 45.8678 167.386 44.9336C166.383 43.9993 165.882 42.8145 165.882 41.3789ZM194.354 59.084V88H184.51V51.0176H193.772L194.354 59.084ZM205.496 50.7783L205.325 59.9043C204.847 59.8359 204.266 59.779 203.582 59.7334C202.921 59.665 202.317 59.6309 201.771 59.6309C200.381 59.6309 199.173 59.8132 198.147 60.1777C197.145 60.5195 196.302 61.0322 195.618 61.7158C194.957 62.3994 194.456 63.2311 194.114 64.2109C193.795 65.1908 193.613 66.3073 193.567 67.5605L191.585 66.9453C191.585 64.5527 191.824 62.3538 192.303 60.3486C192.781 58.3206 193.476 56.5547 194.388 55.0508C195.322 53.5469 196.461 52.3848 197.806 51.5645C199.15 50.7441 200.688 50.334 202.42 50.334C202.967 50.334 203.525 50.3796 204.095 50.4707C204.664 50.5391 205.132 50.6416 205.496 50.7783ZM210.145 35.5H219.988V79.5234L218.997 88H210.145V35.5ZM243.401 69.1328V69.8506C243.401 72.6077 243.105 75.137 242.513 77.4385C241.943 79.7399 241.054 81.7337 239.847 83.4199C238.639 85.0833 237.135 86.3822 235.335 87.3164C233.558 88.2279 231.461 88.6836 229.046 88.6836C226.79 88.6836 224.83 88.2279 223.167 87.3164C221.526 86.4049 220.148 85.1175 219.031 83.4541C217.915 81.7907 217.015 79.8424 216.331 77.6094C215.647 75.3763 215.135 72.9382 214.793 70.2949V68.7227C215.135 66.0794 215.647 63.6413 216.331 61.4082C217.015 59.1751 217.915 57.2269 219.031 55.5635C220.148 53.9001 221.526 52.6126 223.167 51.7012C224.808 50.7897 226.744 50.334 228.978 50.334C231.416 50.334 233.535 50.8011 235.335 51.7354C237.158 52.6468 238.662 53.9456 239.847 55.6318C241.054 57.2952 241.943 59.2777 242.513 61.5791C243.105 63.8577 243.401 66.3757 243.401 69.1328ZM233.558 69.8506V69.1328C233.558 67.6289 233.444 66.2161 233.216 64.8945C233.011 63.5501 232.646 62.3766 232.122 61.374C231.598 60.3486 230.88 59.5397 229.969 58.9473C229.08 58.3548 227.929 58.0586 226.517 58.0586C225.172 58.0586 224.033 58.2865 223.099 58.7422C222.164 59.1979 221.39 59.8359 220.774 60.6562C220.182 61.4766 219.738 62.4564 219.441 63.5957C219.145 64.7122 218.963 65.9427 218.895 67.2871V71.7646C218.963 73.5648 219.259 75.1598 219.783 76.5498C220.33 77.917 221.15 78.9993 222.244 79.7969C223.361 80.5716 224.808 80.959 226.585 80.959C227.975 80.959 229.126 80.6855 230.037 80.1387C230.949 79.5918 231.655 78.8171 232.156 77.8145C232.68 76.8118 233.045 75.6383 233.25 74.2939C233.455 72.9268 233.558 71.4456 233.558 69.8506ZM259.158 58.9131V88H249.314V51.0176H258.543L259.158 58.9131ZM257.723 68.21H255.057C255.057 65.4756 255.41 63.0146 256.116 60.8271C256.823 58.6169 257.814 56.737 259.09 55.1875C260.366 53.6152 261.881 52.4189 263.636 51.5986C265.413 50.7555 267.396 50.334 269.583 50.334C271.315 50.334 272.898 50.5846 274.334 51.0859C275.77 51.5872 277 52.3848 278.025 53.4785C279.074 54.5723 279.871 56.0192 280.418 57.8193C280.988 59.6195 281.272 61.8184 281.272 64.416V88H271.36V64.3818C271.36 62.7412 271.132 61.4652 270.677 60.5537C270.221 59.6423 269.549 59.0042 268.66 58.6396C267.794 58.2523 266.723 58.0586 265.447 58.0586C264.126 58.0586 262.975 58.3206 261.995 58.8447C261.038 59.3688 260.241 60.098 259.603 61.0322C258.987 61.9437 258.52 63.0146 258.201 64.2451C257.882 65.4756 257.723 66.7972 257.723 68.21ZM288.758 35.5H298.602V79.5234L297.61 88H288.758V35.5ZM322.015 69.1328V69.8506C322.015 72.6077 321.718 75.137 321.126 77.4385C320.556 79.7399 319.668 81.7337 318.46 83.4199C317.252 85.0833 315.748 86.3822 313.948 87.3164C312.171 88.2279 310.075 88.6836 307.659 88.6836C305.403 88.6836 303.444 88.2279 301.78 87.3164C300.14 86.4049 298.761 85.1175 297.645 83.4541C296.528 81.7907 295.628 79.8424 294.944 77.6094C294.261 75.3763 293.748 72.9382 293.406 70.2949V68.7227C293.748 66.0794 294.261 63.6413 294.944 61.4082C295.628 59.1751 296.528 57.2269 297.645 55.5635C298.761 53.9001 300.14 52.6126 301.78 51.7012C303.421 50.7897 305.358 50.334 307.591 50.334C310.029 50.334 312.148 50.8011 313.948 51.7354C315.771 52.6468 317.275 53.9456 318.46 55.6318C319.668 57.2952 320.556 59.2777 321.126 61.5791C321.718 63.8577 322.015 66.3757 322.015 69.1328ZM312.171 69.8506V69.1328C312.171 67.6289 312.057 66.2161 311.829 64.8945C311.624 63.5501 311.259 62.3766 310.735 61.374C310.211 60.3486 309.493 59.5397 308.582 58.9473C307.693 58.3548 306.543 58.0586 305.13 58.0586C303.785 58.0586 302.646 58.2865 301.712 58.7422C300.778 59.1979 300.003 59.8359 299.388 60.6562C298.795 61.4766 298.351 62.4564 298.055 63.5957C297.758 64.7122 297.576 65.9427 297.508 67.2871V71.7646C297.576 73.5648 297.872 75.1598 298.396 76.5498C298.943 77.917 299.764 78.9993 300.857 79.7969C301.974 80.5716 303.421 80.959 305.198 80.959C306.588 80.959 307.739 80.6855 308.65 80.1387C309.562 79.5918 310.268 78.8171 310.77 77.8145C311.294 76.8118 311.658 75.6383 311.863 74.2939C312.068 72.9268 312.171 71.4456 312.171 69.8506Z" fill="white"/>
</svg>
